Coordinates
version=1
nRows=17
nColumns=33
inDegrees=yes

Units are S.I. units (second, meters, Newtons, ...)
Angles are in degrees.

endheader
time	ground_thorax_rot_x	ground_thorax_rot_y	ground_thorax_rot_z	ground_thorax_tx	ground_thorax_ty	ground_thorax_tz	clav_prot_r	clav_elev_r	scapula_abduction_r	scapula_elevation_r	scapula_upward_rot_r	scapula_winging_r	shoulder_elv_r	plane_of_elev_r	axial_rot_r	elbow_flexion_r	pro_sup_r	wrist_flex_r	wrist_dev_r	clav_prot_l	clav_elev_l	scapula_abduction_l	scapula_elevation_l	scapula_upward_rot_l	scapula_winging_l	shoulder_elv_l	plane_of_elev_l	axial_rot_l	elbow_flexion_l	pro_sup_l	wrist_flex_l	wrist_dev_l	
5.7400	24.258072	32.389355	49.117647	-101.921752	782.043205	9.314710	13.286262	38.483819	34.886495	45.000000	-39.336395	-1165.590531	-3718.031459	148.119395	-122.474216	731.726109	28.071002	18.549326	9.697606	7.632972	-45.000000	-36.169800	45.000000	-45.000000	2615.648690	-2809.443506	17.965289	-62.311950	728.421778	20.868516	9.792275	-18.965016	
5.7500	24.573186	32.154516	48.546238	-104.140150	782.925509	9.227086	13.281121	38.555174	35.028571	45.000000	-39.053022	-1165.744371	-3717.911006	148.073998	-122.610630	731.848798	28.191506	18.620132	9.587171	7.624897	-45.000000	-36.222760	45.000000	-45.000000	2615.638119	-2809.317573	18.183516	-61.712859	728.520469	20.546402	9.731598	-18.992888	
5.7600	24.907458	31.903794	47.938096	-106.448172	783.854084	9.129707	13.271730	38.630035	35.177453	45.000000	-38.737928	-1165.907250	-3717.791015	148.030650	-122.735495	731.973201	28.322811	18.693135	9.475566	7.616481	-45.000000	-36.266888	45.000000	-45.000000	2615.630357	-2809.189501	18.417679	-61.082960	728.614395	20.198830	9.667816	-19.019300	
5.7700	25.265549	31.632779	47.292773	-108.844261	784.829151	9.023241	13.255331	38.703119	35.332198	45.000000	-38.391340	-1166.075330	-3717.672411	147.983658	-122.844560	732.092623	28.460822	18.767126	9.366466	7.609317	-45.000000	-36.293650	45.000000	-45.000000	2615.628222	-2809.062801	18.669180	-60.424586	728.697795	19.828946	9.597203	-19.043091	
5.7800	25.637490	31.349330	46.620514	-111.326196	785.850494	8.908971	13.236193	38.776503	35.491652	45.000000	-38.024488	-1166.250032	-3717.552097	147.937124	-122.951479	732.208362	28.598699	18.840364	9.256309	7.602428	-45.000000	-36.314451	45.000000	-45.000000	2615.630395	-2808.932362	18.930086	-59.747767	728.776898	19.439574	9.524860	-19.066292	
5.7900	26.009667	31.064139	45.944160	-113.891018	786.917444	8.788550	13.218779	38.851540	35.652475	45.000000	-37.668387	-1166.423998	-3717.420381	147.892156	-123.073599	732.319642	28.730072	18.910834	9.142648	7.594619	-45.000000	-36.343907	45.000000	-44.999999	2615.635636	-2808.793602	19.179314	-59.067559	728.858119	19.033520	9.455623	-19.091160	
5.8000	26.378714	30.778116	45.263373	-116.535693	788.028997	8.663466	13.203077	38.925024	35.815135	45.000000	-37.323350	-1166.602885	-3717.278930	147.849062	-123.223279	732.431134	28.849766	18.979380	9.023997	7.586562	-45.000000	-36.389032	45.000000	-44.999999	2615.646911	-2808.644134	19.418891	-58.395387	728.947041	18.613026	9.389081	-19.119335	
5.8100	26.737979	30.495672	44.591193	-119.256813	789.183615	8.534692	13.190819	38.994228	35.977826	45.000000	-37.008198	-1166.779584	-3717.123562	147.806593	-123.405796	732.536734	28.955562	19.044278	8.901145	7.578781	-45.000000	-36.451579	45.000000	-44.999998	2615.662917	-2808.484680	19.638717	-57.738443	729.042093	18.180986	9.326843	-19.150814	
5.8200	27.110615	30.196962	43.886633	-122.051108	790.379342	8.402446	13.171095	39.040033	36.151331	45.000000	-36.676668	-1166.971307	-3716.974748	147.761854	-123.608280	732.634461	29.047921	19.108702	8.780187	7.574607	-45.000000	-36.522908	45.000000	-44.999997	2615.689660	-2808.326387	19.872390	-57.102177	729.137164	17.741713	9.257543	-19.184058	
5.8300	27.475114	29.895798	43.183318	-124.915022	791.613635	8.266334	13.153077	39.080752	36.321991	45.000000	-36.361593	-1167.164968	-3716.818392	147.716019	-123.831758	732.734070	29.124596	19.172397	8.655917	7.571290	-45.000000	-36.597716	45.000000	-44.999994	2615.725646	-2808.156808	20.099441	-56.487718	729.237216	17.299310	9.186614	-19.220715	
5.8400	27.846234	29.581765	42.457718	-127.844962	792.883593	8.125640	13.129480	39.117022	36.487613	45.000000	-36.032442	-1167.365401	-3716.662204	147.667172	-124.064071	732.836698	29.187985	19.238484	8.533706	7.572329	-45.000000	-36.656248	45.000000	-44.999990	2615.774258	-2807.980495	20.343047	-55.890543	729.336675	16.856707	9.102401	-19.259107	
5.8500	28.199955	29.272811	41.748698	-130.836762	794.185897	7.979712	13.112391	39.172501	36.633874	45.000000	-35.730419	-1167.552630	-3716.487511	147.618598	-124.313397	732.941032	29.239452	19.302882	8.407014	7.574843	-45.000000	-36.703470	45.000000	-44.999982	2615.829048	-2807.787234	20.572757	-55.317364	729.437715	16.417309	9.016957	-19.300695	
5.8600	28.553240	28.956474	41.031133	-133.885821	795.517054	7.828172	13.092515	39.227648	36.772642	45.000000	-35.430564	-1167.737580	-3716.307853	147.568449	-124.569586	733.039473	29.284927	19.366317	8.281148	7.581969	-45.000000	-36.743166	45.000000	-44.999968	2615.892925	-2807.589385	20.803669	-54.769052	729.533553	15.983016	8.924452	-19.344300	
5.8700	28.863049	28.662217	40.375920	-136.986863	796.873378	7.670970	13.084880	39.271074	36.899375	45.000000	-35.225943	-1167.904389	-3716.101639	147.513508	-124.847953	733.137923	29.326216	19.426147	8.151395	7.595352	-45.000000	-36.796072	45.000000	-44.999943	2615.965839	-2807.373435	20.988159	-54.232978	729.627891	15.548997	8.840655	-19.391021	
5.8800	29.157212	28.371928	39.745025	-140.134416	798.251293	7.508314	13.076107	39.283277	37.031142	45.000000	-35.069525	-1168.068427	-3715.886634	147.457689	-125.135387	733.228258	29.370196	19.484441	8.027104	7.614645	-45.000000	-36.857855	45.000000	-44.999898	2616.050101	-2807.157433	21.149316	-53.712986	729.713930	15.113064	8.752618	-19.438425	
5.8900	29.435082	28.082438	39.140958	-143.322699	799.647231	7.340605	13.067065	39.262964	37.169149	45.000000	-34.962666	-1168.228088	-3715.665753	147.399561	-125.423848	733.309536	29.419337	19.540143	7.908039	7.638951	-45.000000	-36.928420	45.000000	-44.999818	2616.146030	-2806.943685	21.284841	-53.208726	729.787821	14.673603	8.663322	-19.485341	
5.9000	29.731315	27.769401	38.508790	-146.546108	801.057791	7.168434	13.045516	39.219824	37.320618	45.000000	-34.825881	-1168.399298	-3715.459397	147.345884	-125.690418	733.379834	29.475078	19.594411	7.795953	7.663128	-45.000000	-36.997495	45.000000	-44.999674	2616.252220	-2806.746000	21.426249	-52.735661	729.849073	14.233870	8.563569	-19.531193	
